<?xml version="1.0" standalone="no"?>
<!DOCTYPE svg PUBLIC "-//W3C//DTD SVG 20010904//EN"
 "http://www.w3.org/TR/2001/REC-SVG-20010904/DTD/svg10.dtd">
<svg version="1.0" xmlns="http://www.w3.org/2000/svg"
 width="1500pt" height="1500pt" viewBox="0 0 300 300"
 preserveAspectRatio="xMidYMid meet">
<metadata>
Created by potrace 1.10, written by Peter Selinger 2001-2011
</metadata>
<g transform="translate(0,300) scale(0.133,-0.133)" fill="#FFFFFF" stroke="none">
<path d="M840 2477 c-99 -78 -143 -145 -158 -241 -24 -152 44 -270 220 -382
40 -26 75 -48 77 -50 6 -5 -40 -269 -60 -344 -12 -41 -39 -118 -61 -170 -47
-113 -78 -221 -78 -270 0 -20 7 -60 16 -89 14 -50 17 -52 42 -47 15 4 57 22
95 40 37 19 67 31 67 26 0 -36 -97 -99 -186 -121 -105 -26 -156 -68 -201 -166
-14 -29 -27 -78 -30 -109 -5 -48 -3 -59 12 -70 16 -12 178 -14 911 -14 1003 0
921 -7 911 78 -15 126 -94 241 -199 290 -27 12 -48 25 -48 28 0 3 7 18 15 35
46 89 36 182 -41 376 -26 65 -55 150 -66 188 -18 66 -58 293 -58 325 0 8 32
34 70 58 90 56 161 125 196 193 25 47 29 65 29 139 0 126 -42 201 -168 302
-82 64 -98 50 -43 -41 44 -71 61 -135 52 -185 -10 -51 -82 -123 -161 -160 -57
-28 -60 -28 -72 -10 -87 122 -162 187 -260 224 -71 26 -192 36 -261 21 -117
-25 -244 -114 -309 -217 -15 -24 -32 -44 -36 -44 -13 0 -100 47 -134 73 -101
75 -113 164 -38 290 59 98 43 113 -45 44z m513 -743 c71 -34 73 -95 4 -127
-97 -46 -217 16 -217 111 0 26 5 31 28 35 48 9 148 -2 185 -19z m498 9 c31
-31 -37 -126 -102 -143 -22 -6 -56 -8 -76 -4 -36 7 -93 51 -93 73 0 20 46 62
85 76 46 17 168 16 186 -2z m-248 -229 c52 -22 73 -26 127 -22 36 3 80 13 98
22 l32 17 0 -43 c-1 -148 -115 -343 -240 -409 -64 -34 -176 -34 -242 0 -120
61 -220 227 -243 403 l-6 46 51 -19 c70 -26 151 -24 220 6 72 32 126 31 203
-1z m-201 -535 c111 -34 221 -11 323 67 l35 26 0 -28 c0 -70 39 -141 94 -171
18 -10 17 -13 -12 -56 -62 -89 -154 -141 -277 -157 -141 -18 -271 19 -360 101
-40 37 -75 85 -75 103 0 3 13 12 30 21 35 18 68 78 76 139 l6 44 45 -34 c24
-19 76 -43 115 -55z"/>
<path d="M1440 1322 c-29 -10 -70 -44 -70 -57 0 -37 94 -67 167 -54 52 10 101
48 88 69 -20 33 -137 59 -185 42z"/>
</g>
</svg>