<?xml version="1.0" standalone="no"?>
<!DOCTYPE svg PUBLIC "-//W3C//DTD SVG 20010904//EN"
 "http://www.w3.org/TR/2001/REC-SVG-20010904/DTD/svg10.dtd">
<svg version="1.0" xmlns="http://www.w3.org/2000/svg"
 width="300.000000pt" height="300.000000pt" viewBox="0 0 300.000000 300.000000"
 preserveAspectRatio="xMidYMid meet">
<metadata>
Created by potrace 1.10, written by Peter Selinger 2001-2011
</metadata>
<g transform="translate(0.000000,300.000000) scale(0.100000,-0.100000)"
fill="#000000" stroke="none">
<path d="M1515 2535 c-70 -386 -102 -484 -187 -581 -88 -100 -184 -80 -248 50
-43 87 -58 190 -43 294 7 42 15 86 18 97 4 11 -7 -1 -24 -28 -80 -122 -109
-323 -77 -522 9 -54 18 -101 21 -103 2 -2 41 5 87 16 277 68 657 69 921 1 43
-11 82 -17 86 -15 15 10 34 161 34 276 0 76 -6 137 -17 178 -19 72 -56 158
-80 187 -17 20 -17 20 -12 0 18 -65 25 -183 15 -244 -21 -136 -100 -251 -172
-251 -63 0 -137 65 -185 163 -38 80 -65 177 -97 357 -32 177 -31 174 -40 125z
m49 -576 c35 -28 33 -73 -6 -102 -35 -26 -73 -16 -93 23 -14 27 -14 33 0 59
13 27 28 36 61 40 6 0 23 -9 38 -20z"/>
<path d="M1239 2348 c-48 -36 -89 -106 -89 -151 0 -58 42 -114 98 -131 22 -7
22 -7 22 98 0 58 5 128 11 156 6 28 9 53 6 56 -2 3 -24 -10 -48 -28z"/>
<path d="M1762 2338 c5 -24 13 -96 16 -161 l7 -117 34 17 c74 38 95 117 53
199 -18 36 -92 104 -113 104 -4 0 -2 -19 3 -42z"/>
<path d="M797 2047 c-147 -183 -207 -299 -242 -469 -22 -101 -19 -302 5 -410
78 -355 346 -627 715 -724 137 -37 345 -39 478 -6 308 77 534 256 663 527 136
285 122 635 -34 901 -38 64 -150 210 -157 202 -1 -2 -5 -37 -9 -78 l-6 -75 38
-51 c48 -64 93 -156 124 -254 20 -65 23 -95 23 -230 0 -133 -3 -165 -23 -227
-54 -172 -161 -334 -287 -436 l-60 -48 -5 285 -5 285 -52 -49 c-29 -28 -53
-57 -53 -65 0 -35 -55 -129 -108 -186 -157 -170 -386 -174 -550 -10 -52 51
-122 174 -122 212 0 9 -18 29 -40 44 -22 15 -40 32 -40 36 0 5 -4 9 -10 9 -6
0 -10 -98 -10 -275 0 -159 -4 -275 -9 -275 -15 0 -102 73 -151 126 -271 292
-302 747 -71 1059 37 49 37 51 33 128 -2 42 -7 77 -11 77 -3 -1 -14 -11 -24
-23z"/>
<path d="M1325 1730 c-94 -11 -209 -33 -283 -55 -61 -19 -60 -7 -31 -187 13
-85 28 -145 41 -166 25 -40 32 -37 17 7 -15 44 2 84 33 79 18 -2 24 -13 33
-58 59 -290 208 -470 390 -470 177 0 304 147 377 435 22 89 36 107 64 84 13
-10 15 -25 10 -64 l-5 -50 20 32 c28 44 76 332 58 344 -19 11 -133 39 -229 55
-107 18 -389 26 -495 14z m55 -268 c37 -20 80 -85 66 -99 -13 -13 -112 -6
-143 11 -15 8 -43 30 -61 49 l-34 35 29 10 c44 16 105 14 143 -6z m443 -1 c8
-8 2 -20 -17 -40 -42 -44 -86 -61 -155 -61 l-61 0 11 27 c25 66 78 96 158 89
30 -3 59 -10 64 -15z m-257 -372 c58 -15 63 -26 20 -44 -45 -19 -89 -19 -127
0 -35 18 -31 31 14 44 43 12 42 12 93 0z"/>
<path d="M310 1426 c0 -52 1 -54 31 -60 75 -15 79 -12 79 54 l0 60 -55 0 -55
0 0 -54z"/>
<path d="M2610 1419 l0 -60 53 3 52 3 3 58 3 57 -56 0 -55 0 0 -61z"/>
<path d="M762 1427 l-32 -33 31 -38 32 -37 38 37 39 38 -32 33 c-18 18 -35 33
-38 33 -3 0 -20 -15 -38 -33z"/>
<path d="M2210 1425 l-34 -35 34 -35 34 -35 33 32 c18 18 33 37 33 43 0 11
-51 65 -61 65 -3 0 -20 -16 -39 -35z"/>
</g>
</svg>
