<?xml version="1.0" standalone="no"?>
<!DOCTYPE svg PUBLIC "-//W3C//DTD SVG 20010904//EN"
 "http://www.w3.org/TR/2001/REC-SVG-20010904/DTD/svg10.dtd">
<svg version="1.0" xmlns="http://www.w3.org/2000/svg"
 width="300.000000pt" height="300.000000pt" viewBox="0 0 300.000000 300.000000"
 preserveAspectRatio="xMidYMid meet">
<metadata>
Created by potrace 1.10, written by Peter Selinger 2001-2011
</metadata>
<g transform="translate(0.000000,300.000000) scale(0.100000,-0.100000)"
fill="#000000" stroke="none">
<path d="M1270 2628 c-55 -96 -73 -156 -74 -243 -1 -67 3 -89 25 -136 49 -104
98 -143 242 -195 29 -10 59 -31 75 -50 l25 -32 21 31 c14 20 40 38 71 50 113
43 148 63 186 105 108 116 116 283 23 449 -43 77 -54 85 -47 31 6 -40 5 -41
-18 -34 -143 41 -284 47 -404 16 -43 -11 -82 -20 -87 -20 -6 0 -7 17 -3 40 4
22 4 40 1 40 -3 0 -19 -24 -36 -52z m370 -247 c30 -5 81 -19 112 -31 l58 -21
-15 -29 c-20 -38 -60 -76 -110 -103 -57 -31 -192 -31 -251 0 -46 24 -114 95
-114 119 0 18 53 41 135 59 74 16 114 18 185 6z"/>
<path d="M2004 2494 c18 -44 19 -170 2 -228 l-17 -58 39 -51 c92 -121 127
-231 120 -379 -6 -114 -28 -187 -84 -274 -32 -51 -110 -134 -126 -134 -4 0 -8
165 -8 366 l0 365 -40 -33 -40 -33 0 -132 0 -132 -45 -88 c-54 -105 -138 -203
-200 -233 -42 -20 -46 -21 -79 -5 -68 33 -173 155 -225 265 -23 49 -26 69 -29
190 l-3 135 -35 33 c-19 17 -37 32 -39 32 -3 0 -6 -165 -7 -367 l-3 -368 -52
53 c-105 109 -159 254 -150 412 6 120 34 199 102 300 50 73 51 77 40 111 -20
56 -26 129 -16 194 5 33 7 62 5 64 -5 6 -119 -86 -155 -126 -206 -228 -271
-539 -175 -835 64 -194 222 -466 447 -764 102 -136 296 -363 316 -371 8 -3 24
0 36 7 53 30 302 334 451 550 222 322 325 540 356 749 39 272 -88 577 -310
746 -77 58 -85 62 -76 39z m-383 -1203 c17 -18 29 -40 29 -56 0 -37 -50 -85
-88 -85 -47 0 -82 34 -82 81 0 83 83 118 141 60z"/>
<path d="M1310 1928 c0 -27 39 -75 74 -92 22 -10 54 -16 81 -14 l45 3 -17 35
c-12 23 -34 43 -63 58 -48 24 -120 30 -120 10z"/>
<path d="M1719 1930 c-54 -16 -99 -62 -99 -100 0 -15 76 -12 114 4 37 16 76
60 76 87 0 15 -7 19 -32 18 -18 0 -45 -4 -59 -9z"/>
</g>
</svg>
