<?xml version="1.0" standalone="no"?>
<!DOCTYPE svg PUBLIC "-//W3C//DTD SVG 20010904//EN"
 "http://www.w3.org/TR/2001/REC-SVG-20010904/DTD/svg10.dtd">
<svg version="1.0" xmlns="http://www.w3.org/2000/svg"
 width="300.000000pt" height="300.000000pt" viewBox="0 0 300.000000 300.000000"
 preserveAspectRatio="xMidYMid meet">
<metadata>
Created by potrace 1.10, written by Peter Selinger 2001-2011
</metadata>
<g transform="translate(0.000000,300.000000) scale(0.100000,-0.100000)"
fill="#000000" stroke="none">
<path d="M1338 2496 c-29 -22 -34 -70 -9 -95 40 -40 111 -15 111 40 0 55 -60
87 -102 55z"/>
<path d="M1850 2490 c-11 -11 -20 -31 -20 -45 0 -14 9 -34 20 -45 11 -11 31
-20 45 -20 14 0 34 9 45 20 11 11 20 31 20 45 0 14 -9 34 -20 45 -11 11 -31
20 -45 20 -14 0 -34 -9 -45 -20z"/>
<path d="M1602 2463 c-32 -6 -89 -66 -97 -102 -9 -44 11 -95 51 -131 29 -25
35 -36 32 -64 l-3 -34 -39 13 c-51 18 -103 71 -121 121 -11 35 -17 39 -49 42
l-36 3 0 -85 0 -86 -39 0 c-33 0 -40 4 -45 24 -3 14 -18 38 -32 55 -21 25 -23
32 -11 37 8 3 21 19 27 35 10 24 10 33 -4 54 -36 55 -116 36 -116 -29 0 -32
24 -66 48 -66 7 0 12 -33 14 -97 l3 -98 453 -3 452 -2 0 99 c0 96 1 99 24 105
31 8 52 56 37 85 -23 43 -70 52 -101 21 -26 -26 -26 -72 0 -95 19 -18 19 -18
-5 -47 -14 -16 -28 -40 -31 -54 -5 -20 -12 -24 -45 -24 l-39 0 0 85 0 85 -33
0 c-29 0 -35 -5 -46 -36 -24 -66 -100 -134 -151 -134 -16 0 -20 6 -20 33 0 25
6 36 29 50 33 19 61 72 61 114 0 34 -31 87 -62 106 -27 18 -74 26 -106 20z"/>
<path d="M1176 1959 c-14 -11 -23 -25 -20 -31 13 -20 90 -48 136 -48 59 0 86
10 132 51 28 24 34 34 24 40 -7 5 -65 9 -129 9 -103 0 -119 -2 -143 -21z"/>
<path d="M1529 1930 c-86 -126 -234 -167 -365 -100 -32 16 -62 30 -65 30 -12
0 -68 -136 -83 -200 -22 -92 -20 -220 4 -316 19 -74 101 -252 139 -303 l18
-24 29 21 c91 65 148 160 210 346 58 174 92 244 152 309 66 71 148 121 258
157 101 34 187 84 192 112 3 17 -13 18 -226 18 l-229 -1 -34 -49z m-89 -301
c0 -25 -52 -135 -78 -164 -45 -52 -119 -106 -170 -125 -53 -20 -57 -20 -69 -4
-27 36 -16 58 36 77 94 33 171 123 215 250 5 16 8 17 36 2 19 -10 30 -23 30
-36z"/>
<path d="M2073 1901 l-42 -48 35 -34 c53 -51 102 -159 116 -254 30 -213 -86
-431 -278 -522 -65 -31 -90 -37 -162 -41 l-85 -5 5 54 c3 30 12 71 21 92 l16
38 88 -3 c49 -1 94 1 101 5 7 5 12 29 12 56 0 32 5 53 15 61 9 7 15 23 13 34
-2 12 3 26 11 32 11 8 11 15 2 33 -15 27 -4 43 39 61 17 7 30 14 30 17 0 2
-20 46 -45 97 -40 82 -44 97 -35 122 6 15 8 45 5 65 l-7 38 -86 -30 c-139 -49
-216 -108 -275 -210 -14 -24 -49 -115 -78 -203 -29 -87 -69 -185 -88 -217 -34
-57 -146 -179 -163 -179 -22 0 1 -40 98 -171 119 -161 290 -369 303 -369 27 0
332 378 455 562 87 132 159 276 182 368 35 135 17 302 -46 439 -30 64 -96 161
-108 161 -4 -1 -26 -23 -49 -49z m-205 -244 c25 -52 13 -61 -45 -31 -56 27
-68 50 -30 57 42 9 62 2 75 -26z"/>
</g>
</svg>
