<?xml version="1.0" standalone="no"?>
<!DOCTYPE svg PUBLIC "-//W3C//DTD SVG 20010904//EN"
 "http://www.w3.org/TR/2001/REC-SVG-20010904/DTD/svg10.dtd">
<svg version="1.0" xmlns="http://www.w3.org/2000/svg"
 width="300.000000pt" height="300.000000pt" viewBox="0 0 300.000000 300.000000"
 preserveAspectRatio="xMidYMid meet">
<metadata>
Created by potrace 1.10, written by Peter Selinger 2001-2011
</metadata>
<g transform="translate(0.000000,300.000000) scale(0.100000,-0.100000)"
fill="#000000" stroke="none">
<path d="M1492 2468 c-5 -7 -12 -57 -14 -112 -3 -97 -3 -99 -36 -126 -43 -36
-94 -50 -179 -50 -40 0 -74 -5 -81 -12 -7 -7 -12 -31 -12 -55 0 -24 -4 -43 -9
-43 -26 0 -97 69 -115 112 -18 45 -18 48 -1 95 23 64 24 103 3 116 -24 16 -50
-10 -83 -84 -80 -179 -38 -387 107 -532 l58 -59 -8 -46 -7 -46 -73 68 c-39 38
-86 92 -103 122 -17 30 -32 54 -35 54 -10 0 -54 -83 -76 -145 -40 -110 -51
-195 -45 -320 6 -124 42 -252 99 -355 90 -161 296 -388 530 -584 l118 -98 52
43 c338 277 532 494 628 703 54 117 70 194 70 336 0 78 -6 145 -16 188 -18 74
-87 232 -102 232 -5 0 -13 -10 -19 -22 -32 -69 -162 -208 -195 -208 -4 0 -8
19 -8 43 0 38 6 48 64 109 48 50 72 86 97 145 30 72 33 86 33 183 -1 118 -21
188 -72 249 -25 30 -31 32 -50 22 -26 -14 -28 -31 -8 -69 19 -37 30 -97 22
-127 -11 -43 -96 -125 -131 -125 -3 0 -5 19 -5 43 0 24 -5 48 -12 55 -7 7 -42
12 -88 12 -61 0 -86 5 -126 25 -69 34 -84 64 -84 167 0 52 -5 89 -12 96 -16
16 -63 15 -76 0z m121 -348 c64 -71 15 -179 -82 -180 -36 0 -49 6 -77 34 -38
38 -44 77 -19 126 35 67 127 77 178 20z m-280 -82 c2 -24 8 -50 12 -60 4 -11
0 -18 -15 -23 -31 -10 -40 4 -47 69 -6 55 -5 56 19 56 22 0 26 -5 31 -42z
m445 -13 c-5 -63 -17 -80 -48 -70 -15 5 -19 12 -14 23 4 10 9 31 11 47 7 48
11 55 34 55 20 0 21 -4 17 -55z m-626 -62 c46 -9 57 -44 27 -87 l-24 -35 -32
31 c-31 30 -93 135 -93 157 0 6 21 -5 46 -25 26 -19 60 -38 76 -41z m873 41
c-23 -55 -97 -154 -115 -154 -3 0 -16 13 -28 29 -30 41 -20 64 42 90 29 12 64
33 76 46 33 35 43 31 25 -11z m-533 -172 c41 -17 43 -17 82 2 51 26 137 27
186 3 40 -19 65 -55 75 -107 l6 -36 -81 -23 c-90 -27 -151 -65 -175 -112 -22
-41 -11 -51 58 -57 62 -5 122 20 168 71 16 17 31 28 35 24 4 -3 3 -40 -1 -81
-6 -71 -9 -79 -51 -125 -28 -31 -44 -58 -44 -75 0 -23 2 -25 26 -16 14 6 27
10 29 10 9 0 -16 -65 -41 -107 -63 -109 -154 -177 -234 -177 -85 0 -186 86
-249 211 -28 57 -27 71 4 65 22 -4 25 -1 25 24 0 20 -13 42 -44 74 -44 44 -45
46 -46 115 -1 39 -1 76 -1 83 1 7 15 -3 33 -23 58 -67 139 -91 216 -64 31 10
31 12 17 38 -27 52 -81 89 -172 117 -49 15 -89 28 -91 29 -2 2 2 23 8 48 27
104 140 143 262 89z m-499 -226 c12 -12 13 -25 5 -68 -15 -79 -4 -185 27 -263
26 -65 27 -69 10 -81 -28 -21 -50 -1 -81 73 -25 61 -28 80 -28 183 -1 95 2
121 17 143 20 31 29 33 50 13z m1121 -1 c35 -35 34 -247 -2 -329 -15 -33 -27
-46 -42 -46 -31 0 -35 25 -15 90 14 47 17 81 13 169 -4 72 -2 113 5 120 15 15
23 14 41 -4z m-637 -684 c21 -6 49 -11 63 -11 34 0 102 32 160 75 l47 35 16
-63 c15 -61 15 -62 -6 -81 -74 -64 -224 -93 -328 -63 -77 23 -153 73 -143 95
4 9 12 38 17 63 l10 47 64 -44 c34 -24 80 -48 100 -53z"/>
<path d="M1500 2080 c-25 -25 -25 -32 -2 -60 14 -18 25 -21 45 -16 38 9 48 53
17 78 -28 23 -35 23 -60 -2z"/>
<path d="M1481 1323 c-11 -23 -10 -29 5 -40 23 -17 65 -17 88 0 14 10 15 18 7
40 -9 23 -16 27 -49 27 -32 0 -41 -4 -51 -27z"/>
<path d="M1424 1215 c-18 -15 -18 -16 15 -45 60 -51 122 -51 182 0 33 29 33
30 15 45 -14 11 -44 15 -106 15 -62 0 -92 -4 -106 -15z"/>
</g>
</svg>
