<?xml version="1.0" standalone="no"?>
<!DOCTYPE svg PUBLIC "-//W3C//DTD SVG 20010904//EN"
 "http://www.w3.org/TR/2001/REC-SVG-20010904/DTD/svg10.dtd">
<svg version="1.0" xmlns="http://www.w3.org/2000/svg"
 width="225.000000pt" height="225.000000pt" viewBox="0 0 225.000000 225.000000"
 preserveAspectRatio="xMidYMid meet">
<metadata>
Created by potrace 1.10, written by Peter Selinger 2001-2011
</metadata>
<g transform="translate(0.000000,225.000000) scale(0.100000,-0.100000)"
fill="#000000" stroke="none">
<path d="M327 1864 c-4 -4 -7 -41 -7 -83 0 -180 120 -297 397 -390 117 -39
250 -96 335 -144 74 -42 168 -112 168 -127 0 -5 -30 6 -67 26 -99 52 -192 88
-328 124 -279 74 -341 100 -421 172 l-54 50 0 -34 c0 -53 27 -121 68 -168 70
-82 155 -122 392 -184 105 -27 224 -62 255 -75 11 -5 36 -15 55 -22 64 -23
173 -109 158 -125 -4 -3 -23 5 -45 18 -96 60 -201 94 -403 129 -117 20 -131
24 -232 58 -32 10 -58 15 -58 11 0 -5 17 -30 39 -57 100 -127 246 -195 515
-243 60 -10 111 -22 115 -26 10 -10 -91 -91 -155 -124 -92 -46 -96 -53 -105
-177 -4 -59 -7 -108 -6 -110 6 -5 113 39 197 81 133 67 238 144 357 261 221
218 396 525 439 768 l6 37 -123 0 -124 0 -23 -81 c-21 -75 -31 -101 -80 -209
-30 -66 -125 -211 -132 -203 -5 4 -22 41 -39 81 -16 40 -43 91 -59 115 -41 58
-135 146 -207 192 -80 51 -276 144 -400 189 -231 85 -270 108 -367 216 -30 33
-57 58 -61 54z"/>
</g>
</svg>
