<?xml version="1.0" standalone="no"?>
<!DOCTYPE svg PUBLIC "-//W3C//DTD SVG 20010904//EN"
 "http://www.w3.org/TR/2001/REC-SVG-20010904/DTD/svg10.dtd">
<svg version="1.0" xmlns="http://www.w3.org/2000/svg"
 width="300.000000pt" height="300.000000pt" viewBox="0 0 300.000000 300.000000"
 preserveAspectRatio="xMidYMid meet">
<metadata>
Created by potrace 1.10, written by Peter Selinger 2001-2011
</metadata>
<g transform="translate(0.000000,300.000000) scale(0.100000,-0.100000)"
fill="#000000" stroke="none">
<path d="M607 2594 c-129 -94 -176 -296 -101 -433 75 -139 251 -223 432 -207
67 6 72 6 72 -13 0 -24 -102 -94 -223 -152 l-87 -42 -63 31 c-70 35 -145 94
-189 150 -70 87 -99 183 -120 391 -6 69 -15 118 -20 113 -17 -17 -48 -198 -48
-283 0 -93 26 -213 61 -287 40 -82 110 -161 244 -276 l134 -115 30 43 c16 24
54 65 84 92 55 51 154 111 164 100 10 -10 -26 -164 -51 -220 -13 -28 -47 -89
-76 -136 -90 -143 -113 -202 -113 -284 0 -52 6 -85 23 -125 23 -52 23 -54 5
-87 -18 -33 -57 -74 -128 -135 -48 -40 -91 -102 -117 -168 -22 -56 -40 -155
-31 -169 8 -13 469 -23 476 -11 4 5 -5 23 -18 39 -41 48 -61 113 -51 161 10
46 28 53 32 12 6 -61 25 -120 54 -166 l30 -47 488 0 489 0 19 27 c37 53 53 95
60 154 7 63 22 76 35 31 13 -47 -2 -109 -39 -157 -19 -25 -34 -49 -34 -54 0
-11 471 -2 484 9 14 13 -13 134 -46 202 -22 47 -54 87 -126 158 -127 125 -132
134 -102 202 46 106 27 226 -57 356 -68 107 -96 157 -119 218 -23 63 -49 182
-40 191 2 3 32 -10 65 -27 55 -30 140 -109 199 -185 15 -20 25 -26 28 -18 3 7
61 60 129 118 230 195 290 312 290 560 0 124 -23 266 -45 280 -4 2 -11 -37
-15 -88 -11 -152 -33 -257 -69 -332 -49 -102 -149 -196 -262 -247 l-46 -20
-86 41 c-119 58 -222 128 -222 152 0 18 5 19 68 13 148 -13 299 42 390 141 66
72 86 131 80 239 -5 82 -23 132 -72 199 -25 34 -112 100 -126 95 -5 -1 4 -24
20 -50 57 -91 84 -168 84 -240 1 -58 -3 -72 -29 -110 -69 -98 -200 -146 -368
-135 -49 3 -94 10 -99 15 -5 5 38 42 109 90 173 120 167 114 165 157 -3 85
-77 195 -166 246 -72 41 -85 37 -43 -15 56 -68 87 -133 87 -184 0 -38 -5 -50
-34 -77 -19 -17 -71 -50 -116 -73 l-82 -41 -60 65 c-44 47 -81 74 -136 102
-70 34 -83 37 -161 37 -118 0 -196 -36 -292 -135 l-67 -70 -81 41 c-111 55
-151 94 -151 146 0 53 18 95 74 171 25 34 40 62 33 62 -24 0 -114 -59 -147
-96 -43 -50 -80 -130 -80 -176 0 -46 7 -53 162 -159 73 -49 116 -85 110 -91
-5 -5 -47 -11 -95 -15 -208 -15 -367 66 -398 202 -14 65 3 134 66 253 24 45
38 82 32 82 -7 0 -34 -16 -60 -36z m721 -781 c66 -16 122 -53 122 -80 0 -11
-5 -13 -17 -8 -82 36 -124 45 -203 44 -47 0 -91 0 -98 0 -11 1 -9 39 4 62 5
10 127 -1 192 -18z m546 5 c12 -47 11 -48 -91 -48 -92 -1 -135 -10 -215 -45
-26 -11 -23 17 5 43 32 31 100 52 192 61 44 5 85 9 91 10 7 0 14 -9 18 -21z
m-539 -162 c25 -15 45 -30 45 -34 0 -4 -14 -16 -31 -26 -47 -28 -105 -17 -146
28 -18 20 -33 43 -33 52 0 26 108 13 165 -20z m495 19 c0 -29 -63 -85 -101
-91 -40 -7 -112 21 -106 40 2 6 27 23 56 38 62 32 151 40 151 13z m-608 -190
c88 -41 139 -33 239 39 l40 29 61 -43 c96 -67 154 -66 273 5 32 19 59 35 61
35 8 0 -9 -86 -33 -170 -34 -118 -75 -191 -148 -259 -119 -111 -211 -136 -315
-84 -72 36 -180 144 -213 213 -33 69 -77 221 -77 267 l0 34 29 -20 c16 -12 53
-32 83 -46z m-334 -307 c-21 -96 -74 -254 -88 -263 -18 -11 -21 75 -6 136 16
61 93 219 107 219 4 0 -2 -42 -13 -92z m1287 -40 c35 -73 50 -155 37 -202 -8
-29 -8 -28 -34 30 -29 63 -78 243 -78 284 0 24 1 23 22 -10 11 -19 36 -65 53
-102z m-901 -166 c0 -72 -28 -128 -89 -177 -25 -21 -45 -46 -45 -56 0 -30 64
-93 128 -127 150 -80 323 -82 464 -5 57 31 128 104 128 132 0 11 -18 34 -40
51 -61 48 -92 108 -93 180 -2 72 18 104 28 44 15 -100 35 -143 85 -186 45 -39
50 -47 50 -85 0 -36 -7 -49 -51 -97 -161 -176 -477 -188 -654 -25 -55 51 -75
86 -75 131 0 27 9 41 49 75 51 44 72 88 86 181 10 63 30 37 29 -36z"/>
<path d="M1420 1411 c0 -18 53 -51 81 -51 30 0 89 43 77 56 -5 4 -25 2 -45 -5
-28 -9 -45 -10 -66 -2 -35 13 -47 14 -47 2z"/>
<path d="M1388 1269 c-21 -11 -38 -21 -38 -23 0 -2 21 -18 47 -35 38 -25 56
-31 103 -31 47 0 65 6 103 31 26 17 47 33 47 35 0 3 -19 14 -42 24 -59 27
-169 26 -220 -1z"/>
</g>
</svg>
